<svg width="131" height="131" viewBox="0 0 131 131" fill="none" xmlns="http://www.w3.org/2000/svg">
<path d="M62.3526 76.8403L62.0642 74.3225L60.5556 76.3588L44.089 98.5849L55.1041 73.2114L56.1133 70.8867L53.7886 71.8959L28.4151 82.911L50.6412 66.4444L52.6775 64.9358L50.1597 64.6474L22.6781 61.5L50.1597 58.3526L52.6775 58.0642L50.6412 56.5556L28.4151 40.089L53.7886 51.1041L56.1133 52.1133L55.1041 49.7886L44.089 24.4151L60.5556 46.6412L62.0642 48.6775L62.3526 46.1597L65.5 18.6781L68.6474 46.1597L68.9358 48.6775L70.4444 46.6412L86.911 24.4151L75.8959 49.7886L74.8867 52.1133L77.2114 51.1041L102.585 40.089L80.3588 56.5556L78.3225 58.0642L80.8403 58.3526L108.322 61.5L80.8403 64.6474L78.3225 64.9358L80.3588 66.4444L102.585 82.911L77.2114 71.8959L74.8867 70.8867L75.8959 73.2114L86.911 98.5849L70.4444 76.3588L68.9358 74.3225L68.6474 76.8403L65.5 104.322L62.3526 76.8403Z" fill="#EB5E28" stroke="#EB5E28" stroke-width="2"/>
<g filter="url(#filter0_d_4_74)">
<circle cx="65.5" cy="61.5" r="60.5" stroke="#EB5E28" stroke-width="2" shape-rendering="crispEdges"/>
</g>
<defs>
<filter id="filter0_d_4_74" x="0" y="0" width="131" height="131" filterUnits="userSpaceOnUse" color-interpolation-filters="sRGB">
<feFlood flood-opacity="0" result="BackgroundImageFix"/>
<feColorMatrix in="SourceAlpha" type="matrix" values="0 0 0 0 0 0 0 0 0 0 0 0 0 0 0 0 0 0 127 0" result="hardAlpha"/>
<feOffset dy="4"/>
<feGaussianBlur stdDeviation="2"/>
<feComposite in2="hardAlpha" operator="out"/>
<feColorMatrix type="matrix" values="0 0 0 0 0 0 0 0 0 0 0 0 0 0 0 0 0 0 0.25 0"/>
<feBlend mode="normal" in2="BackgroundImageFix" result="effect1_dropShadow_4_74"/>
<feBlend mode="normal" in="SourceGraphic" in2="effect1_dropShadow_4_74" result="shape"/>
</filter>
</defs>
</svg>
