<svg width="80" height="43" viewBox="0 0 80 43" fill="none" xmlns="http://www.w3.org/2000/svg">
<g filter="url(#filter0_d_16_96)">
<path d="M21.1179 34.7035L19.7445 22.6514L12.559 32.3987L17.3656 21.2711L6.29338 26.1018L15.9922 18.8803L4.00001 17.5L15.9922 16.1197L6.29338 8.89824L17.3656 13.7289L12.559 2.60132L19.7445 12.3486L21.1179 0.296488L22.4914 12.3486L29.6769 2.60133L24.8702 13.7289L35.9425 8.89825L26.2437 16.1197L38.2359 17.5L26.2437 18.8803L35.9425 26.1018L24.8702 21.2711L29.6769 32.3987L22.4914 22.6514L21.1179 34.7035Z" fill="#EB5E28"/>
<path d="M20.7381 22.5381L20.4499 20.0092L18.9396 22.058L16.9481 24.7595L18.2837 21.6676L19.2886 19.3411L16.9658 20.3545L13.8766 21.7022L16.5894 19.6824L18.6134 18.1754L16.1065 17.8869L12.7454 17.5L16.1065 17.1131L18.6134 16.8246L16.5894 15.3176L13.8766 13.2978L16.9658 14.6455L19.2886 15.6589L18.2837 13.3324L16.9481 10.2405L18.9396 12.942L20.4499 14.9908L20.7381 12.4619L21.1179 9.12844L21.4978 12.4619L21.786 14.9908L23.2963 12.942L25.2878 10.2405L23.9522 13.3324L22.9473 15.6589L25.2701 14.6455L28.3593 13.2978L25.6465 15.3176L23.6225 16.8246L26.1293 17.1131L29.4904 17.5L26.1293 17.8869L23.6225 18.1754L25.6465 19.6824L28.3593 21.7023L25.2701 20.3545L22.9473 19.3411L23.9522 21.6676L25.2878 24.7595L23.2963 22.058L21.786 20.0092L21.4978 22.5381L21.1179 25.8716L20.7381 22.5381Z" stroke="#EB5E28" stroke-width="2"/>
</g>
<g filter="url(#filter1_d_16_96)">
<path d="M57.9339 34.7035L56.5604 22.6514L49.3749 32.3987L54.1816 21.2711L43.1093 26.1018L52.8081 18.8803L40.8159 17.5L52.8081 16.1197L43.1093 8.89824L54.1816 13.7289L49.3749 2.60132L56.5604 12.3486L57.9339 0.296488L59.3073 12.3486L66.4928 2.60133L61.6862 13.7289L72.7584 8.89825L63.0596 16.1197L75.0518 17.5L63.0596 18.8803L72.7584 26.1018L61.6862 21.2711L66.4928 32.3987L59.3073 22.6514L57.9339 34.7035Z" fill="#EB5E28"/>
<path d="M57.554 22.5381L57.2658 20.0092L55.7555 22.058L53.764 24.7595L55.0996 21.6676L56.1045 19.3411L53.7817 20.3545L50.6925 21.7022L53.4053 19.6824L55.4293 18.1754L52.9225 17.8869L49.5614 17.5L52.9225 17.1131L55.4293 16.8246L53.4053 15.3176L50.6925 13.2978L53.7817 14.6455L56.1045 15.6589L55.0996 13.3324L53.764 10.2405L55.7555 12.942L57.2658 14.9908L57.554 12.4619L57.9339 9.12844L58.3137 12.4619L58.6019 14.9908L60.1122 12.942L62.1037 10.2405L60.7681 13.3324L59.7632 15.6589L62.086 14.6455L65.1752 13.2978L62.4624 15.3176L60.4384 16.8246L62.9453 17.1131L66.3064 17.5L62.9453 17.8869L60.4384 18.1754L62.4624 19.6824L65.1752 21.7023L62.086 20.3545L59.7632 19.3411L60.7681 21.6676L62.1037 24.7595L60.1122 22.058L58.6019 20.0092L58.3137 22.5381L57.9339 25.8716L57.554 22.5381Z" stroke="#EB5E28" stroke-width="2"/>
</g>
<defs>
<filter id="filter0_d_16_96" x="0" y="0.296478" width="42.2359" height="42.407" filterUnits="userSpaceOnUse" color-interpolation-filters="sRGB">
<feFlood flood-opacity="0" result="BackgroundImageFix"/>
<feColorMatrix in="SourceAlpha" type="matrix" values="0 0 0 0 0 0 0 0 0 0 0 0 0 0 0 0 0 0 127 0" result="hardAlpha"/>
<feOffset dy="4"/>
<feGaussianBlur stdDeviation="2"/>
<feComposite in2="hardAlpha" operator="out"/>
<feColorMatrix type="matrix" values="0 0 0 0 0 0 0 0 0 0 0 0 0 0 0 0 0 0 0.25 0"/>
<feBlend mode="normal" in2="BackgroundImageFix" result="effect1_dropShadow_16_96"/>
<feBlend mode="normal" in="SourceGraphic" in2="effect1_dropShadow_16_96" result="shape"/>
</filter>
<filter id="filter1_d_16_96" x="36.8159" y="0.296478" width="42.2359" height="42.407" filterUnits="userSpaceOnUse" color-interpolation-filters="sRGB">
<feFlood flood-opacity="0" result="BackgroundImageFix"/>
<feColorMatrix in="SourceAlpha" type="matrix" values="0 0 0 0 0 0 0 0 0 0 0 0 0 0 0 0 0 0 127 0" result="hardAlpha"/>
<feOffset dy="4"/>
<feGaussianBlur stdDeviation="2"/>
<feComposite in2="hardAlpha" operator="out"/>
<feColorMatrix type="matrix" values="0 0 0 0 0 0 0 0 0 0 0 0 0 0 0 0 0 0 0.25 0"/>
<feBlend mode="normal" in2="BackgroundImageFix" result="effect1_dropShadow_16_96"/>
<feBlend mode="normal" in="SourceGraphic" in2="effect1_dropShadow_16_96" result="shape"/>
</filter>
</defs>
</svg>
